<?xml version="1.0" encoding="UTF-8" standalone="no"?>
<svg width="180px" height="24px" viewBox="0 0 180 24" version="1.1" xmlns="http://www.w3.org/2000/svg" xmlns:xlink="http://www.w3.org/1999/xlink" xmlns:sketch="http://www.bohemiancoding.com/sketch/ns">
    <!-- Generator: Sketch 3.4.4 (17249) - http://www.bohemiancoding.com/sketch -->
    <title>128</title>
    <desc>Created with Sketch.</desc>
    <defs></defs>
    <g id="Page-1" stroke="none" stroke-width="1" fill="none" fill-rule="evenodd" sketch:type="MSPage">
        <g id="128" sketch:type="MSArtboardGroup" fill="#F2F2F2">
            <g id="Group" sketch:type="MSLayerGroup" transform="translate(1.000000, 2.000000)">
                <path d="M111,11 L115.879537,11 L115.879537,12.1822323 L112.323482,12.1822323 L112.323482,13.73918 L115.633258,13.73918 L115.633258,14.9197039 L112.323482,14.9197039 L112.323482,16.8177677 L116,16.8177677 L116,18 L111,18 L111,11 Z" id="Fill-42" sketch:type="MSShapeGroup"></path>
                <path d="M120,17.0006309 C120,16.4466877 119.556116,16 119.003783,16 C118.447667,16 118,16.4466877 118,17.0006309 C118,17.5526814 118.447667,18 119.003783,18 C119.556116,18 120,17.5526814 120,17.0006309" id="Fill-43" sketch:type="MSShapeGroup"></path>
                <path d="M123.453669,15.7886535 C123.499115,16.0901274 123.591186,16.3152925 123.726933,16.4641486 C123.977769,16.7360663 124.407437,16.8720252 125.014755,16.8720252 C125.37832,16.8720252 125.674011,16.8360203 125.900059,16.7645478 C126.330317,16.6264394 126.546921,16.3717181 126.546921,15.9971595 C126.546921,15.7795179 126.439504,15.6097037 126.225261,15.4882543 C126.013968,15.3711039 125.678733,15.2690005 125.224277,15.1781821 L124.441668,15.0201904 C123.674405,14.8632735 123.144993,14.6929218 122.856974,14.5102103 C122.367696,14.2055121 122.123352,13.7240135 122.123352,13.0721634 C122.123352,12.4794258 122.360024,11.9855673 122.838678,11.5905881 C123.315562,11.1977583 124.014952,11 124.939209,11 C125.707653,11 126.366909,11.1859358 126.912257,11.5556579 C127.454653,11.9264548 127.740311,12.4638415 127.76628,13.1678182 L126.313791,13.1678182 C126.287232,12.7766006 126.094826,12.4987717 125.733622,12.3332566 C125.493409,12.2230923 125.196537,12.1688162 124.836514,12.1688162 C124.439898,12.1688162 124.122369,12.2402887 123.885697,12.3837709 C123.649616,12.5261784 123.530395,12.722862 123.530395,12.9781207 C123.530395,13.2140335 123.646075,13.3886842 123.880386,13.5052971 C124.031477,13.5810686 124.349006,13.6729618 124.837694,13.7777522 L126.10604,14.053969 C126.66142,14.174881 127.076333,14.3344849 127.354318,14.5360049 C127.783986,14.8482266 128,15.2990941 128,15.8886074 C128,16.4953171 127.743262,16.9983111 127.230376,17.3986642 C126.721621,17.7990173 125.999213,18 125.067283,18 C124.114106,18 123.365729,17.8022417 122.818021,17.4072624 C122.271493,17.0155074 122,16.4754337 122,15.7886535 L123.453669,15.7886535 Z" id="Fill-45" sketch:type="MSShapeGroup"></path>
                <path d="M130,11 L131.322489,11 L131.322489,15.1945805 C131.322489,15.664086 131.371994,16.0047401 131.474035,16.223732 C131.632653,16.6058619 131.974136,16.7955443 132.502526,16.7955443 C133.027379,16.7955443 133.371388,16.6058619 133.52748,16.223732 C133.628006,16.0047401 133.679531,15.664086 133.679531,15.1945805 L133.679531,11 L135,11 L135,15.1945805 C135,15.9195766 134.89998,16.4825407 134.694888,16.88845 C134.310467,17.6283773 133.580521,18 132.502526,18 C131.42352,18 130.693069,17.6283773 130.307133,16.88845 C130.100525,16.4825407 130,15.9195766 130,15.1945805 L130,11 Z" id="Fill-47" sketch:type="MSShapeGroup"></path>
                <path d="M138,11 L139.347254,11 L141.800823,15.8698858 L141.800823,11 L143,11 L143,18 L141.712479,18 L139.198173,13.0348376 L139.198173,18 L138,18 L138,11 Z" id="Fill-49" sketch:type="MSShapeGroup"></path>
                <path d="M152.049852,12.2024957 C152.400593,12.2024957 152.688427,12.2387975 152.915134,12.3136699 C153.175074,12.4191719 153.307418,12.6352808 153.307418,12.9671015 C153.307418,13.2631877 153.207715,13.4719229 153.008902,13.5882019 C152.811869,13.7050482 152.554896,13.7623369 152.236202,13.7623369 L150.460534,13.7623369 L150.460534,12.2024957 L152.049852,12.2024957 Z M152.272997,14.9239932 C152.586944,14.9256948 152.834421,14.9659671 153.007715,15.0408395 C153.321068,15.1798071 153.476558,15.4282473 153.476558,15.7958026 C153.476558,16.2263188 153.31632,16.5190017 152.995252,16.672717 C152.816617,16.7538287 152.568546,16.7952354 152.249258,16.7952354 L150.460534,16.7952354 L150.460534,14.9239932 L152.272997,14.9239932 Z M152.535905,11 L149,11 L149,18 L152.297329,18 C152.669436,18 153.013056,17.9676687 153.330564,17.9047079 C153.649258,17.8411798 153.924629,17.7237663 154.157864,17.5536018 C154.364392,17.4049915 154.537092,17.2223483 154.675371,17.0045377 C154.894362,16.6744186 155,16.30346 155,15.8888259 C155,15.4878049 154.910386,15.1474759 154.720475,14.8655701 C154.534125,14.5825298 154.254006,14.3783324 153.88546,14.2478729 C154.12819,14.1276234 154.309792,13.9954623 154.434421,13.8479864 C154.656973,13.5899036 154.768546,13.2450369 154.768546,12.8156551 C154.768546,12.4027226 154.656973,12.0436756 154.432641,11.7458877 C154.059941,11.2603517 153.427893,11.0113443 152.535905,11 L152.535905,11 Z" id="Fill-51" sketch:type="MSShapeGroup"></path>
                <path d="M158.998973,12.5995462 L159.800308,15.3545094 L158.177618,15.3545094 L158.998973,12.5995462 Z M156,18 L157.38655,18 L157.817248,16.5575723 L160.150411,16.5575723 L160.566222,18 L162,18 L159.762834,11 L158.262834,11 L156,18 Z" id="Fill-53" sketch:type="MSShapeGroup"></path>
                <path d="M164,11 L165.348162,11 L167.803977,15.8698858 L167.803977,11 L169,11 L169,18 L167.715103,18 L165.198534,13.0348376 L165.198534,18 L164,18 L164,11 Z" id="Fill-55" sketch:type="MSShapeGroup"></path>
                <path d="M172,11 L173.413284,11 L173.413284,13.8815523 L176.027668,11 L177.859826,11 L175.08383,13.884955 L178,18 L176.179936,18 L174.091617,14.9466094 L173.413284,15.6583489 L173.413284,18 L172,18 L172,11 Z" id="Fill-57" sketch:type="MSShapeGroup"></path>
                <path d="M55.7017501,15.0252727 L58.7861798,15.0252727 L58.7861798,6.06012237 L61,6.06012237 L61,18 L58.7861798,18 L58.7861798,17.1928704 L50.2985368,17.1705241 L50.2782901,17.9356212 L48,17.9356212 L48,5.95371109 L50.2782901,5.95371109 L50.2782901,15.0252727 L53.4042789,15.0039904 L53.4042789,4 L55.7017501,4 L55.7017501,15.0252727 Z" id="Fill-59" sketch:type="MSShapeGroup"></path>
                <path d="M95,5.25966249 C93.913453,6.63037561 92.5227172,8.06586826 91.0388963,9 L90,6.89112684 C91.1486037,6.17365269 92.2323803,5.0860098 93.1200133,4 C93.7400266,4.41262929 94.3572695,4.84921067 95,5.25966249" id="Fill-61" sketch:type="MSShapeGroup"></path>
                <path d="M104,6 L96,6 L96,4 L104,4 L104,6 Z" id="Fill-63" sketch:type="MSShapeGroup"></path>
                <path d="M104,9.16656445 L104,11.3226004 L101.914894,11.3226004 L101.87234,17.4949913 C101.788298,17.9678013 101.427128,18.3945109 101.022872,18.5952162 C100.067021,19.022488 98.8558511,18.8645099 97.7946809,18.8645099 L96.9648936,16.6207707 L99.5148936,16.5746703 C99.6202128,16.531381 99.7079787,16.3958908 99.7489362,16.2834509 L99.768617,11.3445262 L94.8856383,11.3012368 C94.8654255,10.7609629 94.9079787,10.1987632 94.8430851,9.70683839 C94.6505319,10.0880098 94.3984043,10.4691812 94.1425532,10.8278647 L94.1425532,19 L92.0175532,19 C91.9978723,17.226822 92.0398936,15.4300317 91.9978723,13.6579781 C91.637234,13.9480732 91.2962766,14.3090054 90.9558511,14.6232751 L90,12.196821 C91.4446809,11.0763569 92.506383,9.52805888 93.3792553,8 L94.8856383,9.14520086 L104,9.16656445 Z" id="Fill-65" sketch:type="MSShapeGroup"></path>
                <path d="M83.0966442,15.391211 C82.9169899,15.432575 83.0085119,15.2397221 82.8491959,15.2397221 C82.802305,15.0882332 82.6452488,15.0474065 82.5333886,14.9405047 C82.4876276,14.7911646 82.3074084,14.7911646 82.3305714,14.5757496 C82.3983654,14.5537246 82.3305714,14.3603346 82.4876276,14.4457485 L82.4876276,14.3823596 C82.6927046,14.2942597 82.8277278,14.1669446 83.0085119,14.0600428 C83.0514482,13.9950423 83.1644383,13.9950423 83.1876012,13.9096283 C83.2096343,13.889215 83.2553953,13.9096283 83.3011563,13.889215 L83.3011563,13.8446278 C83.3248842,13.8016522 83.3904184,13.82314 83.4130165,13.82314 L83.4130165,13.7592139 C83.4356145,13.7162383 83.4808105,13.7592139 83.5039735,13.7377261 L83.5039735,13.6963621 C83.5265715,13.651775 83.5926707,13.6732627 83.6152687,13.6732627 L83.6152687,13.6098738 C83.6632895,13.5658238 83.7073557,13.588386 83.7525517,13.588386 L83.7525517,13.5233854 C83.7525517,13.5008233 83.7977477,13.5233854 83.8192158,13.5008233 L83.8192158,13.4583849 C83.8412489,13.4164837 83.8870099,13.4390459 83.9107378,13.4390459 L83.9107378,13.2655321 C83.7282588,13.2247053 83.8192158,12.9668519 83.6152687,12.9244135 C83.5486046,12.9244135 83.6389966,12.796024 83.5265715,12.8379252 C83.4356145,12.7514368 83.4593424,12.6219729 83.3457874,12.5800718 C83.3011563,12.5156084 83.2768634,12.4081695 83.2096343,12.3651939 C83.1203721,12.3001934 83.1203721,12.1508533 83.0085119,12.1282911 C82.9627509,11.9144877 82.802305,11.7850238 82.6695416,11.6802709 C82.6254755,11.7227092 82.6000527,11.7850238 82.5102256,11.7651476 C82.5102256,11.7850238 82.5333886,11.8290738 82.4876276,11.8290738 C82.2175813,11.9349011 82.037927,12.2378788 81.7424579,12.3447805 C81.6537607,12.4726329 81.4950096,12.5156084 81.3616813,12.6015596 C81.1588641,12.6665601 81.1786373,12.4930463 81.113668,12.4307317 C81.0662122,12.1508533 80.8181989,11.7651476 81.09107,11.5706832 L83.3457874,11.5706832 L83.3457874,4.2578534 L76.1935144,4.2578534 L76.1500132,6.44369813 C75.1353621,5.9312145 74.3438665,4.89980092 73.8043388,4 L71.7965048,4 C71.1411623,5.15765431 70.1728372,6.27394464 69,7.15333216 C69.2451885,7.90433018 69.5174946,8.69669218 69.8333019,9.44876459 L70.4191556,9.10549725 C70.5310158,9.21239897 70.4654815,9.42566522 70.4880795,9.57715409 L71.6366239,9.59810468 C71.6162856,9.76893255 71.6366239,9.96393419 71.6162856,10.1347621 L69.3598735,10.1347621 L69.3598735,12.0219266 L71.6366239,12.064365 L71.6162856,15.5185261 L71.2112162,15.6888168 L69.2926443,15.8392313 L69.4016798,17.9847864 C71.3445445,17.7274702 73.2619864,17.3847401 75.1353621,16.99796 C75.4963655,17.1489116 75.2924184,17.6211057 75.3613423,17.9418108 C75.5189635,18.027762 75.8313811,17.9847864 75.991827,17.9418108 C76.3302324,17.9847864 76.4194946,17.7494952 76.7578999,17.8354463 C76.848292,17.6651556 77.1861323,17.8354463 77.3002523,17.7081312 C77.7522127,17.6651556 78.1352491,17.5555679 78.5391887,17.4706912 C78.7888968,17.4078394 79.0821061,17.4078394 79.3069564,17.2982517 C79.5549697,17.2332512 79.916538,17.2778383 80.0967572,17.1043245 L80.0967572,15.7323295 L80.2091823,15.6684034 C80.3453354,15.7323295 80.4119995,15.8392313 80.4362924,15.9901829 C80.5696207,16.0336957 80.5944786,16.2045236 80.7289368,16.2705985 C80.7972958,16.2705985 80.7057738,16.4188642 80.8181989,16.376963 C80.8181989,16.5918409 81.09107,16.5257659 81.09107,16.7406438 C81.2933223,16.7846937 81.2933223,17.0194478 81.4741064,17.0640349 C81.5402056,17.2332512 81.6983918,17.2778383 81.8119468,17.3847401 C81.8339799,17.5555679 82.0593951,17.5131296 82.0593951,17.6850318 C82.2379195,17.7699086 82.3763323,17.8569341 82.5102256,17.9847864 C82.6695416,17.9638358 82.6000527,18.027762 82.7582389,17.9847864 C82.8491959,17.8354463 82.9627509,17.7081312 83.02998,17.5351545 C83.1203721,17.4706912 83.1644383,17.3412273 83.2553953,17.2982517 C83.3011563,17.2123006 83.3695153,17.1698622 83.3695153,17.0640349 C83.4808105,17.0640349 83.4808105,16.934571 83.5265715,16.8701077 C83.6389966,16.7202304 83.7525517,16.5918409 83.8412489,16.398988 C83.9322059,16.398988 83.9322059,16.2910119 84,16.2045236 L84,16.0766713 C83.6841927,15.8617934 83.3248842,15.6888168 83.0966442,15.391211 L83.0966442,15.391211 Z M72.787428,6.51031025 C73.1484313,6.85196601 73.5772287,7.19577053 73.7597077,7.62391461 L71.9981922,7.64540239 C72.2236074,7.23820891 72.4953486,6.87291659 72.787428,6.51031025 L72.787428,6.51031025 Z M76.1500132,15.7538173 L75.6545516,15.7538173 C75.6313886,15.4755505 75.6743249,15.1967466 75.6313886,14.9405047 C75.5421265,14.9619925 75.5189635,14.8545536 75.4963655,14.8099665 C75.7195209,14.1030184 75.8110429,13.3735082 75.969794,12.6665601 C75.4494746,12.4930463 74.885654,12.3861445 74.3229634,12.2787056 L73.8472751,14.4666991 L73.8952958,14.5757496 L75.1568303,14.8545536 C74.6828368,14.9818687 74.2314414,15.1107954 73.6902188,15.1322832 L73.6902188,12.064365 L75.7878799,12.064365 L75.8110429,10.1347621 L73.7365448,10.0912493 L73.7365448,9.62066685 C74.2088434,9.57715409 74.70374,9.59810468 75.2014613,9.59810468 C75.2709502,9.34025128 75.2251893,9.06198449 75.2466574,8.78318051 C75.3613423,8.6752044 75.4720726,8.87020603 75.5856277,8.87020603 C75.8313811,8.56991426 75.9460661,8.18313417 76.1500132,7.88337959 L76.1500132,15.7538173 Z M78.4504915,6.46787188 L78.5634816,6.37977197 L81.000113,6.37977197 C81.113668,6.55221143 81.045309,6.82994103 81.0662122,7.06791823 L81.000113,7.1103566 L78.5634816,7.1103566 C78.3363715,7.02333108 78.4956875,6.68060094 78.4504915,6.46787188 L78.4504915,6.46787188 Z M78.3363715,15.391211 L78.3363715,11.6802709 C78.4725246,11.5706832 78.947083,11.4858064 78.9018869,11.8290738 C79.0821061,12.9442897 79.3527174,14.0159929 79.8261459,15.0248443 C79.3527174,15.1747216 78.8561259,15.347161 78.3363715,15.391211 L78.3363715,15.391211 Z M78.5171557,9.68298142 C78.4047305,9.53417852 78.4504915,9.1704978 78.4956875,8.97710775 L80.9763851,8.97710775 C81.1357011,9.12644784 81.045309,9.42566522 81.0662122,9.64215463 C80.2555083,9.72649418 79.3527174,9.68298142 78.5171557,9.68298142 L78.5171557,9.68298142 Z" id="Fill-66" sketch:type="MSShapeGroup"></path>
                <path d="M69.4492893,15.9464735 C69.8256573,15.881738 70.1996729,15.7973697 70.576629,15.7331648 C70.7171789,15.6710824 70.9512328,15.6912459 70.9982788,15.5660199 C71.0223898,14.6958052 70.7859837,13.8706931 70.7401138,13.0657445 C70.5066481,12.9161101 70.2231959,13.0657445 69.9656191,13.0869693 C69.6392375,13.1501129 69.3304981,13.2344813 69,13.2976249 L69.1670133,15.9464735 L69.2381704,15.9894536 C69.3304981,15.9894536 69.4251782,16.0319031 69.4492893,15.9464735" id="Fill-67" sketch:type="MSShapeGroup"></path>
                <path d="M40.3683311,6.28565848 L35.2486604,6.2944095 L35.2040848,6.33761769 L35.2040848,9.48197054 L40.0220548,9.52463179 L40.0220548,11.7523147 L35.1828842,11.7523147 L35.1600528,15.7055905 L41,15.728015 L41,18 L27,18 L27,15.7504395 L32.8160286,15.728015 L32.8160286,11.7741923 L28.0420905,11.7523147 L28.0420905,9.50220729 L32.8160286,9.50220729 L32.8160286,6.27143806 L27.718102,6.22658905 L27.718102,4 L40.3705056,4 L40.3683311,6.28565848 Z" id="Fill-68" sketch:type="MSShapeGroup"></path>
                <path d="M39.7700828,13.6831575 C39.9827033,14.013805 40.0537742,14.4617791 39.9584207,14.8890137 C39.841746,15.3381729 39.4147284,15.8116269 38.9657972,15.9307312 C38.351034,16.1203498 37.7599611,15.9070288 37.3329434,15.4572771 C37.0753115,15.1503319 36.977589,14.7710946 37.0042406,14.3468228 C37.0480676,13.7773743 37.5011446,13.2108885 38.0430601,13.0674894 C38.6832904,12.8772782 39.3916303,13.0911918 39.7700828,13.6831575" id="Fill-69" sketch:type="MSShapeGroup"></path>
                <path d="M19.8401162,12.0362709 C19.6654121,11.9695174 19.4912489,12.1013828 19.3841548,11.881972 C18.6658668,11.5744686 18.0130252,11.1334583 17.3834415,10.7373151 L17.362888,10.760843 C17.8610381,11.2445316 18.5576909,11.5947135 19.1223691,11.9235561 C19.3181675,12.0362709 19.5999657,12.1013828 19.7086825,12.2989072 C19.6443178,12.3213408 19.5356011,12.3213408 19.5139659,12.4088862 L19.3614378,12.3213408 C19.3181675,12.3421328 19.3614378,12.3880942 19.3403435,12.4088862 L19.4485194,12.4980732 C18.7102189,12.1883811 17.8826732,11.7265788 17.2098191,11.1783254 C16.882587,10.9572731 16.5575184,10.7827293 16.231909,10.5403378 C16.1886386,10.5403378 16.1221104,10.5184515 16.0999344,10.5835634 C16.4720595,10.8697276 16.8620336,11.0459129 17.2309134,11.3080021 C16.5575184,10.9802538 15.7526897,10.4943765 15.2096467,9.83669122 C14.9705779,9.59539406 14.6227924,9.08817756 14.2101013,9.17736449 C14.0581142,9.26436279 13.8195863,9.24302359 13.6448822,9.33056904 C13.5134485,9.33056904 13.4052726,9.17736449 13.2743798,9.28789063 C13.1662039,9.52864064 12.8184183,9.33056904 12.752431,9.59539406 C12.5355383,9.68348667 12.1439416,9.61563894 12.0779543,9.88046395 L12.1012121,9.99099009 C11.6652632,10.1885145 11.0789498,10.1223083 10.7755164,10.5403378 C10.687353,10.626789 10.5142716,10.5184515 10.42719,10.626789 C10.4482843,10.5835634 10.4050139,10.5403378 10.3612027,10.5403378 C10.2535676,10.4943765 10.1886621,10.6059969 10.1010396,10.626789 C10.036675,10.5184515 10.1886621,10.4943765 10.1659452,10.430906 C9.97068766,10.3422662 9.88306518,10.6059969 9.73107804,10.6929952 C9.75433586,10.5184515 9.94959336,10.4943765 10.013958,10.3422662 C9.90578212,10.2782486 9.81761876,10.3871333 9.73107804,10.4079253 C9.77488928,10.3871333 9.86197088,10.2300986 9.73107804,10.2300986 C9.84195834,10.0555549 10.0788636,10.1223083 10.14431,9.92368952 L9.97068766,9.92368952 C10.14431,9.79237134 10.3401084,9.63916678 10.4915546,9.50620712 C10.42719,9.50620712 10.2962971,9.33056904 10.1886621,9.48432076 C10.1886621,9.46188723 10.2324733,9.44054803 10.2102973,9.41866166 C10.1232157,9.33056904 10.013958,9.48432076 9.90578212,9.48432076 C9.90578212,9.50620712 9.9274173,9.41866166 9.86197088,9.39622814 L9.79598358,9.39622814 C9.86197088,9.35245541 9.94959336,9.24302359 10.036675,9.17736449 L9.9934046,9.13249745 C10.3179323,8.93442585 10.6440827,8.71446788 10.9718556,8.56016901 L11.0351386,8.4934156 C10.9815915,8.42666219 10.8977552,8.4064173 10.8193276,8.4211906 C10.8014786,8.45894458 10.7663214,8.48794401 10.687353,8.4934156 C10.7214284,8.45073719 10.7695667,8.4304923 10.8193276,8.4211906 C10.8658433,8.32106048 10.7874157,8.15308263 10.9913273,8.12080024 C11.0351386,7.87895592 11.253113,7.70331784 11.4267353,7.59443318 C11.1438553,7.32687237 11.0351386,6.84591951 10.7084473,6.69107348 C10.687353,6.49354904 10.4915546,6.69107348 10.4715421,6.49354904 C10.0788636,6.4700212 9.62127949,6.6680928 9.36111645,6.31845813 C9.16585894,6.25115755 8.90623677,6.27413824 8.71043839,6.29547744 C8.53519342,6.44977631 8.47136964,6.6680928 8.36265286,6.84591951 C8.18848965,6.9772377 8.10086717,7.19774282 7.97105609,7.39581442 C7.7752577,7.66009227 7.53564807,7.99002922 7.1889443,8.09891388 L7.1889443,8.05459399 C6.9487938,8.38453094 6.42738594,8.25321275 6.12287077,8.60394174 L6.10123559,8.51639628 C5.99305969,8.4934156 5.90597809,8.56016901 5.88380203,8.64935595 L5.88380203,8.69258152 C5.73073312,8.64935595 5.6230981,8.82554118 5.55873344,8.91199232 C5.18769009,9.30922984 4.57974151,9.30922984 4.18868562,9.63916678 C4.18327682,9.64190258 4.18327682,9.64190258 4.18111331,9.64354406 C4.17408187,9.64846849 4.17300011,9.64792133 4.18111331,9.64354406 C4.1892265,9.63752531 4.19950321,9.62712928 4.18868562,9.61563894 C3.4709385,9.77048497 3.12315297,10.3187384 2.6444746,10.8472941 C2.51412263,11.0667049 2.29668907,11.1991174 2.1241485,11.376397 C2.16687798,11.5514879 1.90455142,11.6182413 1.82017421,11.7063339 C1.90455142,11.5514879 2.10089068,11.4196225 2.1241485,11.2445316 C1.94836266,11.3309828 1.90455142,11.5296015 1.71037567,11.6182413 C1.60003625,11.5296015 1.82017421,11.4633953 1.75364603,11.376397 L1.4929421,11.5744686 L1.73201085,11.2445316 C1.60003625,11.2653237 1.46968428,11.486376 1.31931978,11.507168 C1.27550854,11.5744686 1.21114388,11.5744686 1.12406227,11.5744686 L1.12406227,11.5514879 C1.21114388,11.486376 1.36259014,11.3309828 1.4929421,11.1991174 C1.34041408,11.1110248 1.16571,11.3080021 1.05807497,11.2888515 C1.01426373,11.2653237 1.03752155,11.1553447 0.926641249,11.1991174 C1.03752155,11.1110248 1.14461569,11.0459129 1.18842694,10.9145947 C1.10188621,10.8921612 0.99262855,10.9572731 0.905006068,11.001593 C0.926641249,10.8921612 1.14461569,10.8259549 1.08079191,10.6492225 C0.799534562,10.6059969 0.841182285,10.8921612 0.602113539,10.9572731 C0.841182285,10.626789 1.18842694,10.430906 1.4296592,10.0779884 L1.40531962,10.0555549 C1.86236281,9.55052701 2.42758191,9.24302359 2.99280101,8.91199232 C3.44876244,8.64935595 4.05779278,8.51639628 4.38394313,8.07702752 C4.51429509,7.90029512 4.64464705,7.74818489 4.73118778,7.57035818 C4.79717508,7.59443318 4.81881026,7.52767977 4.83990456,7.48281272 C5.16659579,7.28419396 5.5149222,7.15397009 5.90597809,7.15397009 C6.08014129,6.9772377 6.40520988,7.08666952 6.53556185,6.84591951 C6.99260504,6.29547744 7.16568648,5.61481151 7.55674238,5.06327512 C7.68709434,4.8881842 7.83962236,4.60147283 8.10086717,4.53636089 C8.75370875,4.60147283 9.38383339,4.71309329 9.9934046,4.8881842 C10.3612027,4.77929954 10.8377175,4.492041 11.2098426,4.77929954 C11.4716283,5.17434842 12.1882937,5.30566661 11.9919544,5.85556152 C12.3613751,6.31845813 12.7735253,6.84591951 13.2532855,7.19774282 C13.3614614,7.22017634 13.4052726,7.15397009 13.448543,7.08666952 L13.3176501,7.02155759 C13.4712599,6.88914508 13.8401397,7.1096502 14.0781267,6.9772377 C14.2311956,6.9772377 14.4491701,7.02155759 14.5578869,7.1753093 C14.6660628,7.35149453 14.6876979,7.57035818 14.840226,7.74818489 L14.9262258,7.70331784 C15.0365652,7.90029512 15.0787538,8.07702752 15.2096467,8.25321275 C15.9917585,8.51639628 16.36172,9.46188723 17.0583729,9.85748327 C17.9048493,10.4943765 18.7962188,11.1334583 19.796305,11.507168 C19.7524937,11.641222 19.9050218,11.641222 19.9693864,11.6833532 L19.9693864,11.7063339 C19.8401162,11.641222 19.6654121,11.5744686 19.5356011,11.6182413 C19.6654121,11.8157657 19.9915625,11.7265788 20.0559271,11.9470839 L19.7086825,11.9470839 C19.7086825,12.0138373 19.796305,12.0138373 19.8401162,12.0362709 M20.2977003,6.64784791 C19.558318,4.82307227 18.2531757,3.06340856 16.6235057,1.94118522 C13.6448822,-0.344845558 8.75370875,-0.653990457 5.49220526,1.23863292 C1.928891,3.19472675 -0.202715184,6.9115786 0.015259262,11.0229322 C0.232151949,15.3788659 3.08096437,19.0940763 7.1440513,20.4581439 C10.7755164,21.6897991 14.840226,20.7651002 17.5770763,18.2596586 C20.7520391,15.4215443 21.8619239,10.671656 20.2977003,6.64784791" id="Fill-70" sketch:type="MSShapeGroup"></path>
                <path d="M15.159,8.52 L15,8 L15.159,8.442 L15.159,8.52 Z" id="Fill-71" sketch:type="MSShapeGroup"></path>
                <path d="M15.203,8.28 C15.04,8.243 15.079,8.12 15,8 C15.079,8.042 15.161,8.162 15.203,8.28" id="Fill-72" sketch:type="MSShapeGroup"></path>
                <path d="M4.0265289,8.522 C3.9065289,8.281 4.2255289,8.202 4.3475289,8 C4.3085289,8.202 4.1855289,8.402 4.0265289,8.522" id="Fill-73" sketch:type="MSShapeGroup"></path>
                <path d="M6,9.037 L6,9 L6.124,9 L6,9.037 Z" id="Fill-74" sketch:type="MSShapeGroup"></path>
                <path d="M6.24,9.02670567 C6.161,9.10670567 6.12,9.22470567 6,9.18370567 C6,9.06370567 6.161,8.94570567 6.24,9.02670567" id="Fill-75" sketch:type="MSShapeGroup"></path>
                <path d="M10,9.081 C9.86788751,9.239 9.60562459,9.363 9.57880968,9.603 C9.34205363,9.562 9.18574232,9.923 9,9.923 C9.02550687,9.603 9.34205363,9.804 9.36952256,9.483 L9.57880968,9.239 L9.60562459,9.363 C9.68279922,9.239 9.9470242,9.322 9.86788751,9 L10,9.081 Z" id="Fill-76" sketch:type="MSShapeGroup"></path>
                <path d="M9.441,9 C9.36,9.159 9.199,9.28 9,9.32 C9.08,9.118 9.238,9.118 9.441,9" id="Fill-77" sketch:type="MSShapeGroup"></path>
                <path d="M5.121,10 C5.203,10.118 5.04,10 5,10.079 C5.04,10.039 5.082,10 5.121,10" id="Fill-78" sketch:type="MSShapeGroup"></path>
                <path d="M10.121,10.121 L10,10.121 L10,10 L10.121,10 L10.121,10.121 Z" id="Fill-79" sketch:type="MSShapeGroup"></path>
                <path d="M10.2479452,10.04 C10.2479452,10.12 10.1679452,10.12 10.1299452,10.199 L10.0079452,10.199 C9.96794519,10.08 10.0879452,10.04 10.1679452,10 C10.2099452,10 10.2099452,10.04 10.2479452,10.04" id="Fill-80" sketch:type="MSShapeGroup"></path>
                <path d="M10.3676281,10.0078573 C10.3246281,10.1688573 10.1246281,10.1688573 10.0446281,10.2098573 C9.9246281,10.1688573 10.0846281,10.1298573 10.0846281,10.0488573 C10.2056281,10.0898573 10.2436281,9.96885728 10.3676281,10.0078573" id="Fill-81" sketch:type="MSShapeGroup"></path>
                <path d="M10.4880472,10.038 C10.4460472,10.201 10.1660472,10.201 10.0040472,10.321 C9.96604723,10.16 10.2050472,10.08 10.3270472,10 C10.3660472,10.038 10.4880472,10 10.4880472,10.038" id="Fill-82" sketch:type="MSShapeGroup"></path>
                <path d="M15.361,10.401 C15.522,10.483 15.6,10.68 15.723,10.803 L15.6,10.925 C15.321,10.641 15.161,10.36 15,10 C15.119,10.122 15.2,10.324 15.361,10.401" id="Fill-83" sketch:type="MSShapeGroup"></path>
                <path d="M18.403,12.119 C18.282,12.201 18.123,12.036 18,12 L18.403,12.119 Z" id="Fill-84" sketch:type="MSShapeGroup"></path>
                <path d="M20,12.443 C19.6762661,12.243 19.2403178,12.243 19,12 C19.3584906,12.041 19.7199603,12.243 20,12.443" id="Fill-85" sketch:type="MSShapeGroup"></path>
                <path d="M17.482,12.36 L17,12 L17.322,12.162 L17.482,12.36 Z" id="Fill-86" sketch:type="MSShapeGroup"></path>
                <path d="M19,13.077 L19.04,13 L19.159,13.077 L19,13.077 Z" id="Fill-87" sketch:type="MSShapeGroup"></path>
                <path d="M19.162,13.081 L19,13.081 L19,13 C19.041,13.039 19.118,13.039 19.162,13.081" id="Fill-88" sketch:type="MSShapeGroup"></path>
            </g>
        </g>
    </g>
</svg>