<?xml version="1.0" encoding="UTF-8" standalone="no"?>
<svg width="28px" height="28px" viewBox="0 0 28 28" version="1.1" xmlns="http://www.w3.org/2000/svg" xmlns:xlink="http://www.w3.org/1999/xlink" xmlns:sketch="http://www.bohemiancoding.com/sketch/ns">
    <!-- Generator: Sketch 3.4.4 (17249) - http://www.bohemiancoding.com/sketch -->
    <title>分項額度及共用額度_1440</title>
    <desc>Created with Sketch.</desc>
    <defs></defs>
    <g id="Page-1" stroke="none" stroke-width="1" fill="none" fill-rule="evenodd" sketch:type="MSPage">
        <g id="分項額度及共用額度_1440" sketch:type="MSArtboardGroup" transform="translate(-1096.000000, -884.000000)">
            <g id="Group" sketch:type="MSLayerGroup" transform="translate(1098.000000, 886.000000)">
                <rect id="Rectangle-297" fill="#D8D8D8" sketch:type="MSShapeGroup" x="0" y="1" width="24" height="24" rx="4"></rect>
                <rect id="Rectangle-297-Copy" fill="#EEF1EF" sketch:type="MSShapeGroup" x="0" y="1" width="24" height="23" rx="4"></rect>
                <rect id="Rectangle-297" fill="#2CA8AF" sketch:type="MSShapeGroup" x="0" y="0" width="24" height="6" rx="4"></rect>
                <rect id="Rectangle-299" fill="#2CA8AF" sketch:type="MSShapeGroup" x="0" y="3" width="24" height="3"></rect>
                <rect id="Rectangle-301" fill="#168389" sketch:type="MSShapeGroup" x="0" y="6" width="24" height="1"></rect>
                <rect id="Rectangle-302" fill="#BBBBBB" sketch:type="MSShapeGroup" x="3" y="9" width="3" height="3"></rect>
                <rect id="Rectangle-302-Copy-4" fill="#BBBBBB" sketch:type="MSShapeGroup" x="3" y="14" width="3" height="3"></rect>
                <rect id="Rectangle-302-Copy-8" fill="#BBBBBB" sketch:type="MSShapeGroup" x="3" y="19" width="3" height="3"></rect>
                <rect id="Rectangle-302-Copy" fill="#BBBBBB" sketch:type="MSShapeGroup" x="8" y="9" width="3" height="3"></rect>
                <rect id="Rectangle-302-Copy-5" fill="#BBBBBB" sketch:type="MSShapeGroup" x="8" y="14" width="3" height="3"></rect>
                <rect id="Rectangle-302-Copy-9" fill="#BBBBBB" sketch:type="MSShapeGroup" x="8" y="19" width="3" height="3"></rect>
                <rect id="Rectangle-302-Copy-2" fill="#BBBBBB" sketch:type="MSShapeGroup" x="13" y="9" width="3" height="3"></rect>
                <rect id="Rectangle-302-Copy-6" fill="#BBBBBB" sketch:type="MSShapeGroup" x="13" y="14" width="3" height="3"></rect>
                <rect id="Rectangle-302-Copy-10" fill="#BBBBBB" sketch:type="MSShapeGroup" x="13" y="19" width="3" height="3"></rect>
                <rect id="Rectangle-302-Copy-3" fill="#BBBBBB" sketch:type="MSShapeGroup" x="18" y="9" width="3" height="3"></rect>
                <rect id="Rectangle-302-Copy-7" fill="#BBBBBB" sketch:type="MSShapeGroup" x="18" y="14" width="3" height="3"></rect>
                <rect id="Rectangle-302-Copy-11" fill="#BBBBBB" sketch:type="MSShapeGroup" x="18" y="19" width="3" height="3"></rect>
                <path d="M13,4 C13,4.5523893 12.5523893,5 12,5 C11.4476107,5 11,4.5523893 11,4 C11,3.4476107 11.4476107,3 12,3 C12.5523893,3 13,3.4476107 13,4" id="Fill-8-Copy" fill="#33BCC4" sketch:type="MSShapeGroup"></path>
                <path d="M13,3 C13,3.5523893 12.5523893,4 12,4 C11.4476107,4 11,3.5523893 11,3 C11,2.4476107 11.4476107,2 12,2 C12.5523893,2 13,2.4476107 13,3" id="Fill-9-Copy" fill="#168389" sketch:type="MSShapeGroup"></path>
            </g>
        </g>
    </g>
</svg>