<?xml version="1.0" encoding="UTF-8" standalone="no"?>
<svg width="25px" height="25px" viewBox="0 0 25 25" version="1.1" xmlns="http://www.w3.org/2000/svg" xmlns:xlink="http://www.w3.org/1999/xlink" xmlns:sketch="http://www.bohemiancoding.com/sketch/ns">
    <!-- Generator: Sketch 3.4.4 (17249) - http://www.bohemiancoding.com/sketch -->
    <title>其他作業 copy 2</title>
    <desc>Created with Sketch.</desc>
    <defs></defs>
    <g id="Page-1" stroke="none" stroke-width="1" fill="none" fill-rule="evenodd" sketch:type="MSPage">
        <g id="其他作業-copy-2" sketch:type="MSArtboardGroup" fill="#FFFFFF">
            <path d="M13.9554167,15.3361667 C13.88,15.4065556 13.8333333,15.5041667 13.8333333,15.6111111 C13.8333333,15.8261667 14.02,16 14.25,16 C14.365,16 14.4691667,15.9568333 14.5445833,15.8860556 L17.8779167,12.7749444 C17.9533333,12.7045556 18,12.6073333 18,12.5 C18,12.3930556 17.9533333,12.2958333 17.8779167,12.2250556 L14.5445833,9.11394444 C14.4691667,9.04355556 14.365,9 14.25,9 C14.02,9 13.8333333,9.17383333 13.8333333,9.38888889 C13.8333333,9.49622222 13.88,9.59344444 13.9554167,9.66383333 L16.5775,12.1111111 L3.41666667,12.1111111 C3.18666667,12.1111111 3,12.2849444 3,12.5 C3,12.7150556 3.18666667,12.8888889 3.41666667,12.8888889 L16.5775,12.8888889 L13.9554167,15.3361667 Z M21.5789474,3 L6.42105263,3 C6.18863158,3 6,3.19302273 6,3.43181818 L6,9.90909091 C6,10.1478864 6.18863158,10.3409091 6.42105263,10.3409091 C6.65347368,10.3409091 6.84210526,10.1478864 6.84210526,9.90909091 L6.84210526,3.86363636 L21.1578947,3.86363636 L21.1578947,21.1363636 L6.84210526,21.1363636 L6.84210526,15.0909091 C6.84210526,14.8525455 6.65347368,14.6590909 6.42105263,14.6590909 C6.18863158,14.6590909 6,14.8525455 6,15.0909091 L6,21.5681818 C6,21.8069773 6.18863158,22 6.42105263,22 L21.5789474,22 C21.8113684,22 22,21.8069773 22,21.5681818 L22,3.43181818 C22,3.19302273 21.8113684,3 21.5789474,3 L21.5789474,3 Z" id="Page-1" sketch:type="MSShapeGroup"></path>
        </g>
    </g>
</svg>