<?xml version="1.0" encoding="UTF-8" standalone="no"?>
<svg width="72px" height="24px" viewBox="0 0 72 24" version="1.1" xmlns="http://www.w3.org/2000/svg" xmlns:xlink="http://www.w3.org/1999/xlink" xmlns:sketch="http://www.bohemiancoding.com/sketch/ns">
    <!-- Generator: Sketch 3.4.4 (17249) - http://www.bohemiancoding.com/sketch -->
    <title>Slice 6 Copy</title>
    <desc>Created with Sketch.</desc>
    <defs></defs>
    <g id="Page-1" stroke="none" stroke-width="1" fill="none" fill-rule="evenodd" sketch:type="MSPage">
        <g id="Checkbox-check-Copy" sketch:type="MSLayerGroup" transform="translate(25.000000, 1.000000)">
            <path d="M11,21.8086957 C17.0751322,21.8086957 22,16.9266528 22,10.9043478 C22,4.88204282 17.0751322,0 11,0 C4.92486775,0 0,4.88204282 0,10.9043478 C0,16.9266528 4.92486775,21.8086957 11,21.8086957 Z" id="Oval-4-Copy" stroke="#717171" fill="#717171" sketch:type="MSShapeGroup"></path>
            <path d="M11,18.173913 C15.0500882,18.173913 18.3333333,14.9192178 18.3333333,10.9043478 C18.3333333,6.88947782 15.0500882,3.63478261 11,3.63478261 C6.94991183,3.63478261 3.66666667,6.88947782 3.66666667,10.9043478 C3.66666667,14.9192178 6.94991183,18.173913 11,18.173913 Z" id="Oval-4-Copy" fill="#B8E986" sketch:type="MSShapeGroup"></path>
        </g>
        <rect id="Rectangle-281-Copy-7" stroke="#A3A3A3" fill="#F5F5F5" sketch:type="MSShapeGroup" x="1" y="1" width="22" height="22" rx="100"></rect>
        <rect id="Rectangle-281-Copy-8" stroke="#A3A3A3" fill="#C6C6C6" sketch:type="MSShapeGroup" x="49" y="1" width="22" height="22" rx="100"></rect>
    </g>
</svg>