<?xml version="1.0" encoding="UTF-8" standalone="no"?>
<svg width="96px" height="96px" viewBox="0 0 96 96" version="1.1" xmlns="http://www.w3.org/2000/svg" xmlns:xlink="http://www.w3.org/1999/xlink" xmlns:sketch="http://www.bohemiancoding.com/sketch/ns">
    <!-- Generator: Sketch 3.4.4 (17249) - http://www.bohemiancoding.com/sketch -->
    <title>系統維護作業</title>
    <desc>Created with Sketch.</desc>
    <defs></defs>
    <g id="Page-1" stroke="none" stroke-width="1" fill="none" fill-rule="evenodd" sketch:type="MSPage">
        <g id="系統維護作業" sketch:type="MSArtboardGroup" fill="#FFFFFF">
            <path d="M36.2727273,32.3409091 C34.1149091,32.3409091 32.3636364,30.7339773 32.3636364,28.75 C32.3636364,26.7678182 34.1149091,25.1590909 36.2727273,25.1590909 C38.4305455,25.1590909 40.1818182,26.7678182 40.1818182,28.75 C40.1818182,30.7339773 38.4305455,32.3409091 36.2727273,32.3409091 L36.2727273,32.3409091 Z M77.3181818,26.9545455 L43.8133636,26.9545455 C42.9416364,23.8627727 39.9101364,21.5681818 36.2727273,21.5681818 C32.6353182,21.5681818 29.6038182,23.8627727 28.7320909,26.9545455 L18.6818182,26.9545455 C17.6009545,26.9545455 16.7272727,27.7589091 16.7272727,28.75 C16.7272727,29.7428864 17.6009545,30.5454545 18.6818182,30.5454545 L28.7320909,30.5454545 C29.6038182,33.6390227 32.6353182,35.9318182 36.2727273,35.9318182 C39.9101364,35.9318182 42.9416364,33.6390227 43.8133636,30.5454545 L77.3181818,30.5454545 C78.3990455,30.5454545 79.2727273,29.7428864 79.2727273,28.75 C79.2727273,27.7589091 78.3990455,26.9545455 77.3181818,26.9545455 L77.3181818,26.9545455 Z M63.6363636,52.0909091 C61.4785455,52.0909091 59.7272727,50.4821818 59.7272727,48.5 C59.7272727,46.5178182 61.4785455,44.9090909 63.6363636,44.9090909 C65.7941818,44.9090909 67.5454545,46.5178182 67.5454545,48.5 C67.5454545,50.4821818 65.7941818,52.0909091 63.6363636,52.0909091 L63.6363636,52.0909091 Z M77.3181818,46.7063409 L71.177,46.7063409 C70.3052727,43.6127727 67.2737727,41.3181818 63.6363636,41.3181818 C59.9989545,41.3181818 56.9674545,43.6127727 56.0957273,46.7063409 L18.6818182,46.7063409 C17.6009545,46.7063409 16.7272727,47.5089091 16.7272727,48.5 C16.7272727,49.4928864 17.6009545,50.2954545 18.6818182,50.2954545 L56.0957273,50.2954545 C56.9674545,53.3890227 59.9989545,55.6818182 63.6363636,55.6818182 C67.2737727,55.6818182 70.3052727,53.3890227 71.177,50.2954545 L77.3181818,50.2954545 C78.3990455,50.2954545 79.2727273,49.4928864 79.2727273,48.5 C79.2727273,47.5089091 78.3990455,46.7063409 77.3181818,46.7063409 L77.3181818,46.7063409 Z M87.0909091,80.8181818 C87.0909091,82.8003636 85.3396364,84.4108864 83.1818182,84.4108864 L12.8181818,84.4108864 C10.6603636,84.4108864 8.90909091,82.8003636 8.90909091,80.8181818 L8.90909091,16.1818182 C8.90909091,14.1996364 10.6603636,12.5909091 12.8181818,12.5909091 L83.1818182,12.5909091 C85.3396364,12.5909091 87.0909091,14.1996364 87.0909091,16.1818182 L87.0909091,80.8181818 Z M12.8181818,9 C8.50059091,9 5,12.2156591 5,16.1818182 L5,80.8181818 C5,84.7843409 8.50059091,88 12.8181818,88 L83.1818182,88 C87.4994091,88 91,84.7843409 91,80.8181818 L91,16.1818182 C91,12.2156591 87.4994091,9 83.1818182,9 L12.8181818,9 Z M44.0909091,71.8409091 C41.9330909,71.8409091 40.1818182,70.2339773 40.1818182,68.25 C40.1818182,66.2678182 41.9330909,64.6590909 44.0909091,64.6590909 C46.2487273,64.6590909 48,66.2678182 48,68.25 C48,70.2339773 46.2487273,71.8409091 44.0909091,71.8409091 L44.0909091,71.8409091 Z M77.3181818,66.4545455 L51.6315455,66.4545455 C50.7598182,63.3609773 47.7283182,61.0699773 44.0909091,61.0699773 C40.4535,61.0699773 37.422,63.3609773 36.5502727,66.4545455 L18.6818182,66.4545455 C17.6009545,66.4545455 16.7272727,67.2571136 16.7272727,68.25 C16.7272727,69.2428864 17.6009545,70.0454545 18.6818182,70.0454545 L36.5502727,70.0454545 C37.422,73.1390227 40.4535,75.4318182 44.0909091,75.4318182 C47.7283182,75.4318182 50.7598182,73.1390227 51.6315455,70.0454545 L77.3181818,70.0454545 C78.3990455,70.0454545 79.2727273,69.2428864 79.2727273,68.25 C79.2727273,67.2571136 78.3990455,66.4545455 77.3181818,66.4545455 L77.3181818,66.4545455 Z" id="Page-1" sketch:type="MSShapeGroup"></path>
        </g>
    </g>
</svg>